<?xml version="1.0" encoding="UTF-8"?>
<svg width="1280mm" height="1280mm" version="1.1" viewBox="0 0 1280 1280" xmlns="http://www.w3.org/2000/svg" xmlns:cc="http://creativecommons.org/ns#" xmlns:dc="http://purl.org/dc/elements/1.1/" xmlns:rdf="http://www.w3.org/1999/02/22-rdf-syntax-ns#">
 <metadata>
  <rdf:RDF>
   <cc:Work rdf:about="">
    <dc:format>image/svg+xml</dc:format>
    <dc:type rdf:resource="http://purl.org/dc/dcmitype/StillImage"/>
    <dc:creator>
     <cc:Agent>
      <dc:title>Sandwitch</dc:title>
     </cc:Agent>
    </dc:creator>
   </cc:Work>
  </rdf:RDF>
 </metadata>
 <rect transform="matrix(.71688 -.6972 .73557 .67745 0 0)" x="-780.63" y="648.69" width="1502.1" height="507.19" rx="251.82" ry="0" fill="#deaa87" stroke-width="2.6554"/>
 <path d="m428.74 1184.2c-44.924 29.357-92.681 44.641-143.9 46.054-41.966 1.1575-76.506-5.9186-110.32-22.6-37.686-18.594-112.34-89.422-131.15-124.43-37.172-69.183-30.59-154.35 17.611-227.83 13.814-21.061 18.531-25.728 403.16-398.94l389.19-377.63 20.062-10.527c80.665-42.327 166.97-46.77 237.03-12.203 37.727 18.615 112.37 89.454 131.13 124.44 29.308 54.669 31.661 119.31 6.6048 181.48-5.5696 13.82-16.328 34.559-23.909 46.088-13.499 20.531-21.653 28.611-397.38 393.78-293.41 285.17-387.01 375.05-398.14 382.32zm507.63-533.67c14.482-25.672 20.204-40.398 25.332-65.193 7.5004-36.267 1.7433-74.496-15.604-103.62-9.543-16.019-118.26-127.41-135.75-139.08-45.986-30.703-120.38-26.747-179.3 9.5362-13.437 8.2744-36.37 29.624-137.33 127.85-115.76 112.62-121.77 118.83-133.85 138.1-18.478 29.48-27.018 54.631-29.684 87.43-2.6731 32.878 4.211 64.092 19.307 87.542 14.343 22.281 118.38 126.87 137.36 138.08 53.614 31.68 127.57 23.733 189.34-20.344 6.6616-4.7532 65.431-60.841 130.6-124.64 117.69-115.22 118.56-116.13 129.58-135.67z" fill="#deaa87" stroke-width="2.9109"/>
 <rect transform="matrix(.71674 -.69734 .70003 .71411 0 0)" x="-288.8" y="688.36" width="600.1" height="437.13" rx="171" ry="148.37" fill="#fca" stroke-width="3.9224"/>
 <g display="none">
  <g stroke-width="3.9224">
   <g fill="#f2f2f2">
    <ellipse transform="matrix(.71674 -.69734 .70003 .71411 0 0)" cx="-525.97" cy="1050.8" rx="20.099" ry="19.077"/>
    <ellipse transform="matrix(.71674 -.69734 .70003 .71411 0 0)" cx="-525.97" cy="974.51" rx="20.099" ry="19.077"/>
    <ellipse transform="matrix(.71674 -.69734 .70003 .71411 0 0)" cx="-525.97" cy="898.2" rx="20.099" ry="19.077"/>
    <ellipse transform="matrix(.71674 -.69734 .70003 .71411 0 0)" cx="-525.97" cy="898.2" rx="20.099" ry="19.077"/>
    <ellipse transform="matrix(.71674 -.69734 .70003 .71411 0 0)" cx="-525.97" cy="821.89" rx="20.099" ry="19.077"/>
    <ellipse transform="matrix(.71674 -.69734 .70003 .71411 0 0)" cx="-525.97" cy="745.59" rx="20.099" ry="19.077"/>
    <ellipse transform="matrix(.71674 -.69734 .70003 .71411 0 0)" cx="398.58" cy="1050.8" rx="20.099" ry="19.077"/>
    <ellipse transform="matrix(.71674 -.69734 .70003 .71411 0 0)" cx="398.58" cy="974.51" rx="20.099" ry="19.077"/>
    <ellipse transform="matrix(.71674 -.69734 .70003 .71411 0 0)" cx="398.58" cy="898.2" rx="20.099" ry="19.077"/>
    <ellipse transform="matrix(.71674 -.69734 .70003 .71411 0 0)" cx="398.58" cy="898.2" rx="20.099" ry="19.077"/>
    <ellipse transform="matrix(.71674 -.69734 .70003 .71411 0 0)" cx="398.58" cy="821.89" rx="20.099" ry="19.077"/>
    <ellipse transform="matrix(.71674 -.69734 .70003 .71411 0 0)" cx="398.58" cy="745.59" rx="20.099" ry="19.077"/>
    <ellipse transform="matrix(.71674 -.69734 .70003 .71411 0 0)" cx="558.8" cy="1053.5" rx="20.099" ry="19.077"/>
    <ellipse transform="matrix(.71674 -.69734 .70003 .71411 0 0)" cx="558.8" cy="977.23" rx="20.099" ry="19.077"/>
    <ellipse transform="matrix(.71674 -.69734 .70003 .71411 0 0)" cx="558.8" cy="900.93" rx="20.099" ry="19.077"/>
    <ellipse transform="matrix(.71674 -.69734 .70003 .71411 0 0)" cx="558.8" cy="900.93" rx="20.099" ry="19.077"/>
    <ellipse transform="matrix(.71674 -.69734 .70003 .71411 0 0)" cx="558.8" cy="824.62" rx="20.099" ry="19.077"/>
    <ellipse transform="matrix(.71674 -.69734 .70003 .71411 0 0)" cx="558.8" cy="748.31" rx="20.099" ry="19.077"/>
    <ellipse transform="matrix(.71674 -.69734 .70003 .71411 0 0)" cx="-448.45" cy="1012.7" rx="20.099" ry="19.077"/>
    <ellipse transform="matrix(.71674 -.69734 .70003 .71411 0 0)" cx="-448.45" cy="936.36" rx="20.099" ry="19.077"/>
    <ellipse transform="matrix(.71674 -.69734 .70003 .71411 0 0)" cx="-448.45" cy="936.36" rx="20.099" ry="19.077"/>
    <ellipse transform="matrix(.71674 -.69734 .70003 .71411 0 0)" cx="-448.45" cy="860.05" rx="20.099" ry="19.077"/>
    <ellipse transform="matrix(.71674 -.69734 .70003 .71411 0 0)" cx="-448.45" cy="783.74" rx="20.099" ry="19.077"/>
   </g>
   <g fill="#d38d5f">
    <ellipse transform="matrix(.71674 -.69734 .70003 .71411 0 0)" cx="-145.24" cy="1009.9" rx="20.099" ry="19.077"/>
    <ellipse transform="matrix(.71674 -.69734 .70003 .71411 0 0)" cx="-145.24" cy="933.63" rx="20.099" ry="19.077"/>
    <ellipse transform="matrix(.71674 -.69734 .70003 .71411 0 0)" cx="-145.24" cy="933.63" rx="20.099" ry="19.077"/>
    <ellipse transform="matrix(.71674 -.69734 .70003 .71411 0 0)" cx="-145.24" cy="857.32" rx="20.099" ry="19.077"/>
    <ellipse transform="matrix(.71674 -.69734 .70003 .71411 0 0)" cx="-145.24" cy="781.02" rx="20.099" ry="19.077"/>
    <ellipse transform="matrix(.71674 -.69734 .70003 .71411 0 0)" cx="-67.715" cy="1012.1" rx="20.099" ry="19.077"/>
    <ellipse transform="matrix(.71674 -.69734 .70003 .71411 0 0)" cx="-67.715" cy="935.81" rx="20.099" ry="19.077"/>
    <ellipse transform="matrix(.71674 -.69734 .70003 .71411 0 0)" cx="-67.715" cy="935.81" rx="20.099" ry="19.077"/>
    <ellipse transform="matrix(.71674 -.69734 .70003 .71411 0 0)" cx="-67.716" cy="859.5" rx="20.099" ry="19.077"/>
    <ellipse transform="matrix(.71674 -.69734 .70003 .71411 0 0)" cx="-67.716" cy="783.2" rx="20.099" ry="19.077"/>
    <ellipse transform="matrix(.71674 -.69734 .70003 .71411 0 0)" cx="12.68" cy="1009.4" rx="20.099" ry="19.077"/>
    <ellipse transform="matrix(.71674 -.69734 .70003 .71411 0 0)" cx="12.68" cy="933.09" rx="20.099" ry="19.077"/>
    <ellipse transform="matrix(.71674 -.69734 .70003 .71411 0 0)" cx="12.68" cy="933.09" rx="20.099" ry="19.077"/>
    <ellipse transform="matrix(.71674 -.69734 .70003 .71411 0 0)" cx="12.679" cy="856.78" rx="20.099" ry="19.077"/>
    <ellipse transform="matrix(.71674 -.69734 .70003 .71411 0 0)" cx="12.679" cy="780.47" rx="20.099" ry="19.077"/>
    <ellipse transform="matrix(.71674 -.69734 .70003 .71411 0 0)" cx="90.205" cy="1006.7" rx="20.099" ry="19.077"/>
    <ellipse transform="matrix(.71674 -.69734 .70003 .71411 0 0)" cx="90.205" cy="930.36" rx="20.099" ry="19.077"/>
    <ellipse transform="matrix(.71674 -.69734 .70003 .71411 0 0)" cx="90.205" cy="930.36" rx="20.099" ry="19.077"/>
    <ellipse transform="matrix(.71674 -.69734 .70003 .71411 0 0)" cx="90.204" cy="854.05" rx="20.099" ry="19.077"/>
    <ellipse transform="matrix(.71674 -.69734 .70003 .71411 0 0)" cx="90.204" cy="777.75" rx="20.099" ry="19.077"/>
    <ellipse transform="matrix(.71674 -.69734 .70003 .71411 0 0)" cx="170.6" cy="1009.4" rx="20.099" ry="19.077"/>
    <ellipse transform="matrix(.71674 -.69734 .70003 .71411 0 0)" cx="170.6" cy="933.09" rx="20.099" ry="19.077"/>
    <ellipse transform="matrix(.71674 -.69734 .70003 .71411 0 0)" cx="170.6" cy="933.09" rx="20.099" ry="19.077"/>
    <ellipse transform="matrix(.71674 -.69734 .70003 .71411 0 0)" cx="170.6" cy="856.78" rx="20.099" ry="19.077"/>
    <ellipse transform="matrix(.71674 -.69734 .70003 .71411 0 0)" cx="170.6" cy="780.47" rx="20.099" ry="19.077"/>
   </g>
   <g fill="#f2f2f2">
    <ellipse transform="matrix(.71674 -.69734 .70003 .71411 0 0)" cx="478.98" cy="1012.7" rx="20.099" ry="19.077"/>
    <ellipse transform="matrix(.71674 -.69734 .70003 .71411 0 0)" cx="478.98" cy="936.36" rx="20.099" ry="19.077"/>
    <ellipse transform="matrix(.71674 -.69734 .70003 .71411 0 0)" cx="478.98" cy="936.36" rx="20.099" ry="19.077"/>
    <ellipse transform="matrix(.71674 -.69734 .70003 .71411 0 0)" cx="478.98" cy="860.05" rx="20.099" ry="19.077"/>
    <ellipse transform="matrix(.71674 -.69734 .70003 .71411 0 0)" cx="478.98" cy="783.74" rx="20.099" ry="19.077"/>
    <ellipse transform="matrix(.71674 -.69734 .70003 .71411 0 0)" cx="-365.18" cy="1050.8" rx="20.099" ry="19.077"/>
    <ellipse transform="matrix(.71674 -.69734 .70003 .71411 0 0)" cx="-365.18" cy="974.51" rx="20.099" ry="19.077"/>
    <ellipse transform="matrix(.71674 -.69734 .70003 .71411 0 0)" cx="-365.18" cy="898.2" rx="20.099" ry="19.077"/>
    <ellipse transform="matrix(.71674 -.69734 .70003 .71411 0 0)" cx="-365.18" cy="898.2" rx="20.099" ry="19.077"/>
    <ellipse transform="matrix(.71674 -.69734 .70003 .71411 0 0)" cx="-365.18" cy="821.89" rx="20.099" ry="19.077"/>
    <ellipse transform="matrix(.71674 -.69734 .70003 .71411 0 0)" cx="-365.18" cy="745.59" rx="20.099" ry="19.077"/>
   </g>
  </g>
  <rect transform="matrix(.71167 .70251 -.66792 .74423 0 0)" x="153.66" y="-254.97" width="1502.1" height="507.01" rx="251.81" ry="0" fill="#deaa87" stroke-width="2.6549"/>
  <path d="m86.92 430.74c-30.21-44.261-46.344-91.577-48.614-142.57-1.8594-41.783 4.6681-76.306 20.848-110.26 18.035-37.848 87.879-113.39 122.7-132.7 68.817-38.178 154.4-33.036 228.96 13.755 21.367 13.41 26.13 18.031 407.1 394.96l385.48 381.39 10.899 19.808c43.822 79.646 49.716 165.54 16.188 235.9-18.055 37.889-87.911 113.42-122.71 132.69-54.381 30.103-119.22 33.521-182.03 9.5962-13.963-5.3181-34.957-15.69-46.653-23.049-20.83-13.106-29.075-21.093-401.82-389.28-291.08-287.52-382.85-379.27-390.33-390.23zm544.05 496.78c26.006 13.999 40.881 19.454 65.852 24.149 36.523 6.8682 74.796 0.49788 103.73-17.266 15.919-9.7719 125.9-119.91 137.33-137.53 30.051-46.317 24.843-120.36-12.552-178.44-8.5278-13.247-30.337-35.736-130.6-134.67-114.96-113.43-121.28-119.32-140.83-131.03-29.894-17.916-55.278-26.004-88.242-28.115-33.042-2.1161-64.255 5.2603-87.539 20.687-22.123 14.658-125.36 120.03-136.3 139.12-30.903 53.931-21.699 127.46 23.566 188.26 4.8812 6.5567 62.15 64.164 127.26 128.02 117.59 115.32 118.52 116.17 138.31 126.82z" fill="#deaa87" stroke-width="2.9109"/>
  <g stroke-width="3.9224">
   <rect transform="matrix(.71181 .70238 -.70505 .70916 0 0)" x="599.34" y="-213.86" width="600.08" height="437.14" rx="171" ry="148.37" fill="#fca"/>
   <g fill="#f2f2f2">
    <ellipse transform="matrix(.71181 .70238 -.70505 .70916 0 0)" cx="362.18" cy="148.61" rx="20.098" ry="19.077"/>
    <ellipse transform="matrix(.71181 .70238 -.70505 .70916 0 0)" cx="362.18" cy="72.297" rx="20.098" ry="19.077"/>
    <ellipse transform="matrix(.71181 .70238 -.70505 .70916 0 0)" cx="362.18" cy="-4.012" rx="20.098" ry="19.077"/>
    <ellipse transform="matrix(.71181 .70238 -.70505 .70916 0 0)" cx="362.18" cy="-4.012" rx="20.098" ry="19.077"/>
    <ellipse transform="matrix(.71181 .70238 -.70505 .70916 0 0)" cx="362.18" cy="-80.322" rx="20.098" ry="19.077"/>
    <ellipse transform="matrix(.71181 .70238 -.70505 .70916 0 0)" cx="362.18" cy="-156.63" rx="20.098" ry="19.077"/>
    <ellipse transform="matrix(.71181 .70238 -.70505 .70916 0 0)" cx="1286.7" cy="148.61" rx="20.098" ry="19.077"/>
    <ellipse transform="matrix(.71181 .70238 -.70505 .70916 0 0)" cx="1286.7" cy="72.297" rx="20.098" ry="19.077"/>
    <ellipse transform="matrix(.71181 .70238 -.70505 .70916 0 0)" cx="1286.7" cy="-4.0116" rx="20.098" ry="19.077"/>
    <ellipse transform="matrix(.71181 .70238 -.70505 .70916 0 0)" cx="1286.7" cy="-4.0116" rx="20.098" ry="19.077"/>
    <ellipse transform="matrix(.71181 .70238 -.70505 .70916 0 0)" cx="1286.7" cy="-80.322" rx="20.098" ry="19.077"/>
    <ellipse transform="matrix(.71181 .70238 -.70505 .70916 0 0)" cx="1286.7" cy="-156.63" rx="20.098" ry="19.077"/>
    <ellipse transform="matrix(.71181 .70238 -.70505 .70916 0 0)" cx="1446.9" cy="151.33" rx="20.098" ry="19.077"/>
    <ellipse transform="matrix(.71181 .70238 -.70505 .70916 0 0)" cx="1446.9" cy="75.022" rx="20.098" ry="19.077"/>
    <ellipse transform="matrix(.71181 .70238 -.70505 .70916 0 0)" cx="1446.9" cy="-1.2867" rx="20.098" ry="19.077"/>
    <ellipse transform="matrix(.71181 .70238 -.70505 .70916 0 0)" cx="1446.9" cy="-1.2867" rx="20.098" ry="19.077"/>
    <ellipse transform="matrix(.71181 .70238 -.70505 .70916 0 0)" cx="1446.9" cy="-77.596" rx="20.098" ry="19.077"/>
    <ellipse transform="matrix(.71181 .70238 -.70505 .70916 0 0)" cx="1446.9" cy="-153.91" rx="20.098" ry="19.077"/>
    <ellipse transform="matrix(.71181 .70238 -.70505 .70916 0 0)" cx="439.7" cy="110.45" rx="20.098" ry="19.077"/>
    <ellipse transform="matrix(.71181 .70238 -.70505 .70916 0 0)" cx="439.7" cy="34.143" rx="20.098" ry="19.077"/>
    <ellipse transform="matrix(.71181 .70238 -.70505 .70916 0 0)" cx="439.7" cy="34.143" rx="20.098" ry="19.077"/>
    <ellipse transform="matrix(.71181 .70238 -.70505 .70916 0 0)" cx="439.7" cy="-42.167" rx="20.098" ry="19.077"/>
    <ellipse transform="matrix(.71181 .70238 -.70505 .70916 0 0)" cx="439.7" cy="-118.48" rx="20.098" ry="19.077"/>
   </g>
   <g fill="#d38d5f">
    <ellipse transform="matrix(.71181 .70238 -.70505 .70916 0 0)" cx="742.9" cy="107.73" rx="20.098" ry="19.077"/>
    <ellipse transform="matrix(.71181 .70238 -.70505 .70916 0 0)" cx="742.9" cy="31.417" rx="20.098" ry="19.077"/>
    <ellipse transform="matrix(.71181 .70238 -.70505 .70916 0 0)" cx="742.9" cy="31.417" rx="20.098" ry="19.077"/>
    <ellipse transform="matrix(.71181 .70238 -.70505 .70916 0 0)" cx="742.9" cy="-44.893" rx="20.098" ry="19.077"/>
    <ellipse transform="matrix(.71181 .70238 -.70505 .70916 0 0)" cx="742.9" cy="-121.2" rx="20.098" ry="19.077"/>
    <ellipse transform="matrix(.71181 .70238 -.70505 .70916 0 0)" cx="820.42" cy="109.91" rx="20.098" ry="19.077"/>
    <ellipse transform="matrix(.71181 .70238 -.70505 .70916 0 0)" cx="820.42" cy="33.597" rx="20.098" ry="19.077"/>
    <ellipse transform="matrix(.71181 .70238 -.70505 .70916 0 0)" cx="820.42" cy="33.597" rx="20.098" ry="19.077"/>
    <ellipse transform="matrix(.71181 .70238 -.70505 .70916 0 0)" cx="820.42" cy="-42.712" rx="20.098" ry="19.077"/>
    <ellipse transform="matrix(.71181 .70238 -.70505 .70916 0 0)" cx="820.42" cy="-119.02" rx="20.098" ry="19.077"/>
    <ellipse transform="matrix(.71181 .70238 -.70505 .70916 0 0)" cx="900.82" cy="107.18" rx="20.098" ry="19.077"/>
    <ellipse transform="matrix(.71181 .70238 -.70505 .70916 0 0)" cx="900.82" cy="30.872" rx="20.098" ry="19.077"/>
    <ellipse transform="matrix(.71181 .70238 -.70505 .70916 0 0)" cx="900.82" cy="30.872" rx="20.098" ry="19.077"/>
    <ellipse transform="matrix(.71181 .70238 -.70505 .70916 0 0)" cx="900.82" cy="-45.438" rx="20.098" ry="19.077"/>
    <ellipse transform="matrix(.71181 .70238 -.70505 .70916 0 0)" cx="900.82" cy="-121.75" rx="20.098" ry="19.077"/>
    <ellipse transform="matrix(.71181 .70238 -.70505 .70916 0 0)" cx="978.34" cy="104.46" rx="20.098" ry="19.077"/>
    <ellipse transform="matrix(.71181 .70238 -.70505 .70916 0 0)" cx="978.34" cy="28.147" rx="20.098" ry="19.077"/>
    <ellipse transform="matrix(.71181 .70238 -.70505 .70916 0 0)" cx="978.34" cy="28.147" rx="20.098" ry="19.077"/>
    <ellipse transform="matrix(.71181 .70238 -.70505 .70916 0 0)" cx="978.34" cy="-48.163" rx="20.098" ry="19.077"/>
    <ellipse transform="matrix(.71181 .70238 -.70505 .70916 0 0)" cx="978.34" cy="-124.47" rx="20.098" ry="19.077"/>
    <ellipse transform="matrix(.71181 .70238 -.70505 .70916 0 0)" cx="1058.7" cy="107.18" rx="20.098" ry="19.077"/>
    <ellipse transform="matrix(.71181 .70238 -.70505 .70916 0 0)" cx="1058.7" cy="30.872" rx="20.098" ry="19.077"/>
    <ellipse transform="matrix(.71181 .70238 -.70505 .70916 0 0)" cx="1058.7" cy="30.872" rx="20.098" ry="19.077"/>
    <ellipse transform="matrix(.71181 .70238 -.70505 .70916 0 0)" cx="1058.7" cy="-45.438" rx="20.098" ry="19.077"/>
    <ellipse transform="matrix(.71181 .70238 -.70505 .70916 0 0)" cx="1058.7" cy="-121.75" rx="20.098" ry="19.077"/>
   </g>
   <g fill="#f2f2f2">
    <ellipse transform="matrix(.71181 .70238 -.70505 .70916 0 0)" cx="1367.1" cy="110.45" rx="20.098" ry="19.077"/>
    <ellipse transform="matrix(.71181 .70238 -.70505 .70916 0 0)" cx="1367.1" cy="34.142" rx="20.098" ry="19.077"/>
    <ellipse transform="matrix(.71181 .70238 -.70505 .70916 0 0)" cx="1367.1" cy="34.142" rx="20.098" ry="19.077"/>
    <ellipse transform="matrix(.71181 .70238 -.70505 .70916 0 0)" cx="1367.1" cy="-42.167" rx="20.098" ry="19.077"/>
    <ellipse transform="matrix(.71181 .70238 -.70505 .70916 0 0)" cx="1367.1" cy="-118.48" rx="20.098" ry="19.077"/>
    <ellipse transform="matrix(.71181 .70238 -.70505 .70916 0 0)" cx="522.97" cy="148.61" rx="20.098" ry="19.077"/>
    <ellipse transform="matrix(.71181 .70238 -.70505 .70916 0 0)" cx="522.97" cy="72.297" rx="20.098" ry="19.077"/>
    <ellipse transform="matrix(.71181 .70238 -.70505 .70916 0 0)" cx="522.97" cy="-4.012" rx="20.098" ry="19.077"/>
    <ellipse transform="matrix(.71181 .70238 -.70505 .70916 0 0)" cx="522.97" cy="-4.012" rx="20.098" ry="19.077"/>
    <ellipse transform="matrix(.71181 .70238 -.70505 .70916 0 0)" cx="522.97" cy="-80.322" rx="20.098" ry="19.077"/>
    <ellipse transform="matrix(.71181 .70238 -.70505 .70916 0 0)" cx="522.97" cy="-156.63" rx="20.098" ry="19.077"/>
   </g>
  </g>
 </g>
 <rect transform="matrix(.71688 -.6972 .73557 .67745 0 0)" x="-780.63" y="648.69" width="1502.1" height="507.19" rx="251.82" ry="0" fill="#deaa87" stroke-width="2.6554"/>
 <path d="m428.74 1184.2c-44.924 29.357-92.681 44.641-143.9 46.054-41.966 1.1575-76.506-5.9186-110.32-22.6-37.686-18.594-112.34-89.422-131.15-124.43-37.172-69.183-30.59-154.35 17.611-227.83 13.814-21.061 18.531-25.728 403.16-398.94l389.19-377.63 20.062-10.527c80.665-42.327 166.97-46.77 237.03-12.203 37.727 18.615 112.37 89.454 131.13 124.44 29.308 54.669 31.661 119.31 6.6048 181.48-5.5696 13.82-16.328 34.559-23.909 46.088-13.499 20.531-21.653 28.611-397.38 393.78-293.41 285.17-387.01 375.05-398.14 382.32zm507.63-533.67c14.482-25.672 20.204-40.398 25.332-65.193 7.5004-36.267 1.7433-74.496-15.604-103.62-9.543-16.019-118.26-127.41-135.75-139.08-45.986-30.703-120.38-26.747-179.3 9.5362-13.437 8.2744-36.37 29.624-137.33 127.85-115.76 112.62-121.77 118.83-133.85 138.1-18.478 29.48-27.018 54.631-29.684 87.43-2.6731 32.878 4.211 64.092 19.307 87.542 14.343 22.281 118.38 126.87 137.36 138.08 53.614 31.68 127.57 23.733 189.34-20.344 6.6616-4.7532 65.431-60.841 130.6-124.64 117.69-115.22 118.56-116.13 129.58-135.67z" fill="#deaa87" stroke-width="2.9109"/>
 <rect transform="matrix(.71674 -.69734 .70003 .71411 0 0)" x="-288.8" y="688.36" width="600.1" height="437.13" rx="171" ry="148.37" fill="#fca" stroke-width="3.9224"/>
 <g>
  <g transform="matrix(1 0 0 -1 -.001 1263.4)">
   <rect transform="matrix(.71688 -.6972 .73557 .67745 0 0)" x="-780.63" y="648.69" width="1502.1" height="507.19" rx="251.82" ry="0" fill="#deaa87" stroke-width="2.6554"/>
   <path d="m428.74 1184.2c-44.924 29.357-92.681 44.641-143.9 46.054-41.966 1.1575-76.506-5.9186-110.32-22.6-37.686-18.594-112.34-89.422-131.15-124.43-37.172-69.183-30.59-154.35 17.611-227.83 13.814-21.061 18.531-25.728 403.16-398.94l389.19-377.63 20.062-10.527c80.665-42.327 166.97-46.77 237.03-12.203 37.727 18.615 112.37 89.454 131.13 124.44 29.308 54.669 31.661 119.31 6.6048 181.48-5.5696 13.82-16.328 34.559-23.909 46.088-13.499 20.531-21.653 28.611-397.38 393.78-293.41 285.17-387.01 375.05-398.14 382.32zm507.63-533.67c14.482-25.672 20.204-40.398 25.332-65.193 7.5004-36.267 1.7433-74.496-15.604-103.62-9.543-16.019-118.26-127.41-135.75-139.08-45.986-30.703-120.38-26.747-179.3 9.5362-13.437 8.2744-36.37 29.624-137.33 127.85-115.76 112.62-121.77 118.83-133.85 138.1-18.478 29.48-27.018 54.631-29.684 87.43-2.6731 32.878 4.211 64.092 19.307 87.542 14.343 22.281 118.38 126.87 137.36 138.08 53.614 31.68 127.57 23.733 189.34-20.344 6.6616-4.7532 65.431-60.841 130.6-124.64 117.69-115.22 118.56-116.13 129.58-135.67z" fill="#deaa87" stroke-width="2.9109"/>
   <rect transform="matrix(.71674 -.69734 .70003 .71411 0 0)" x="-288.8" y="688.36" width="600.1" height="437.13" rx="171" ry="148.37" fill="#fca" stroke-width="3.9224"/>
  </g>
 </g>
</svg>
